<?xml version="1.0" standalone="no"?>
<!DOCTYPE svg PUBLIC "-//W3C//DTD SVG 20010904//EN"
 "http://www.w3.org/TR/2001/REC-SVG-20010904/DTD/svg10.dtd">
<svg version="1.0" xmlns="http://www.w3.org/2000/svg"
 width="300.000000pt" height="300.000000pt" viewBox="0 0 300.000000 300.000000"
 preserveAspectRatio="xMidYMid meet">
<metadata>
Created by potrace 1.10, written by Peter Selinger 2001-2011
</metadata>
<g transform="translate(0.000000,300.000000) scale(0.100000,-0.100000)"
fill="#ffffff" stroke="none">
<path d="M1766 2179 c-14 -17 -26 -42 -26 -55 0 -14 27 -87 60 -163 33 -77 57
-145 54 -153 -3 -7 -101 -96 -217 -198 -116 -102 -238 -210 -272 -240 -33 -30
-94 -84 -135 -120 -40 -36 -106 -94 -144 -129 -102 -92 -157 -115 -276 -115
-92 -1 -97 0 -161 36 -111 62 -172 154 -183 272 -19 202 138 376 341 376 76 0
132 -14 188 -48 84 -51 120 -103 170 -244 26 -75 64 -72 153 10 47 44 53 75
27 139 -26 62 -25 63 80 63 63 0 105 5 123 14 40 21 122 112 122 135 0 39 -35
46 -250 51 l-205 5 -22 40 c-12 22 -25 52 -28 68 -7 25 -5 27 22 27 56 0 103
46 103 101 0 52 -41 85 -117 95 -75 9 -337 -2 -363 -16 -23 -12 -50 -60 -50
-89 0 -12 13 -35 29 -53 25 -28 38 -33 86 -38 44 -4 61 -10 71 -26 14 -21 14
-21 -92 -16 -127 6 -191 -6 -294 -55 -53 -26 -94 -55 -141 -102 -127 -127
-171 -232 -170 -402 0 -116 19 -194 68 -279 136 -236 423 -346 674 -259 112
39 156 70 349 249 69 63 172 158 230 210 58 52 110 100 116 105 121 112 205
188 231 209 l32 27 14 -23 c8 -13 36 -73 61 -135 57 -134 89 -180 134 -189 39
-8 98 27 107 64 8 33 2 50 -65 197 -51 111 -71 166 -64 177 10 16 145 3 191
-18 71 -33 140 -100 175 -171 28 -58 33 -77 32 -142 0 -148 -71 -258 -207
-322 -64 -29 -74 -31 -156 -27 -75 3 -95 8 -144 36 -101 57 -137 101 -177 217
-24 70 -36 85 -66 85 -29 0 -144 -105 -144 -131 0 -35 44 -134 83 -189 45 -62
53 -70 117 -121 37 -30 143 -91 152 -88 2 0 10 -2 18 -4 133 -43 284 -34 412
23 107 47 220 154 273 259 64 128 78 295 36 429 -13 39 -28 72 -34 72 -6 0 -7
3 -4 7 16 15 -105 159 -173 207 -118 82 -223 110 -378 103 l-112 -5 -20 38
c-28 54 -26 60 22 60 101 0 154 96 89 161 l-29 29 -150 0 -150 0 -26 -31z
m330 -24 c18 -19 23 -31 19 -48 -12 -38 -34 -47 -116 -47 l-78 0 38 -82 c21
-46 40 -91 44 -100 5 -15 10 -15 53 -2 63 19 207 18 275 -2 242 -71 403 -297
386 -539 -17 -232 -172 -422 -392 -480 -74 -19 -203 -19 -274 0 -139 37 -279
151 -339 275 -49 103 -50 98 22 157 l64 53 7 -43 c19 -116 106 -227 223 -284
50 -24 69 -27 157 -28 92 0 105 3 167 32 243 115 299 430 110 620 -26 25 -76
60 -112 77 -59 28 -74 31 -167 31 -56 0 -105 -3 -108 -7 -4 -4 29 -89 74 -190
82 -185 91 -214 69 -236 -16 -16 -73 -15 -86 1 -10 11 -136 297 -155 350 -9
23 22 49 -464 -393 -410 -374 -448 -403 -573 -435 -84 -22 -220 -16 -304 14
-196 69 -335 250 -353 456 -20 239 127 460 361 543 94 33 232 35 321 4 33 -11
61 -19 62 -18 2 1 -12 37 -30 79 l-32 77 -70 0 c-80 0 -95 9 -95 55 0 63 15
67 235 63 181 -3 198 -5 211 -22 18 -26 18 -61 -2 -80 -11 -12 -35 -16 -84
-16 l-68 0 46 -110 47 -110 235 0 235 -1 -63 -59 -63 -60 -138 0 -139 0 34
-67 c55 -110 55 -111 -19 -170 l-65 -52 -6 48 c-15 114 -110 236 -224 289 -50
24 -69 27 -162 27 -95 0 -110 -3 -163 -28 -249 -123 -298 -445 -95 -632 79
-74 147 -99 263 -100 80 0 97 4 157 32 43 20 100 61 160 115 86 78 657 582
742 656 l38 33 -66 149 c-99 225 -97 230 95 230 125 0 131 -1 155 -25z"/>
</g>
</svg>
